<svg width="1200" height="600" viewBox="0 0 1200 600" fill="none" xmlns="http://www.w3.org/2000/svg">
  <defs>
    <linearGradient id="bg3" x1="0" y1="0" x2="1" y2="1">
      <stop offset="0" stop-color="#E7EEFE"/>
      <stop offset="1" stop-color="#FFD2BE"/>
    </linearGradient>
    <radialGradient id="fade" cx="0" cy="0" r="1" gradientUnits="userSpaceOnUse" gradientTransform="translate(680 310) rotate(120) scale(560 560)">
      <stop offset="0" stop-color="#2A313D" stop-opacity="0.26"/>
      <stop offset="1" stop-color="#2A313D" stop-opacity="0"/>
    </radialGradient>
    <pattern id="noise" width="12" height="12" patternUnits="userSpaceOnUse">
      <circle cx="2" cy="3" r="1" fill="#2A313D" fill-opacity="0.10"/>
      <circle cx="8" cy="6" r="1" fill="#2A313D" fill-opacity="0.08"/>
      <circle cx="5" cy="10" r="1" fill="#2A313D" fill-opacity="0.06"/>
    </pattern>
  </defs>

  <rect width="1200" height="600" rx="36" fill="url(#bg3)"/>
  <rect width="1200" height="600" rx="36" fill="url(#fade)"/>
  <rect width="1200" height="600" rx="36" fill="url(#noise)"/>

  <g opacity="0.7">
    <path d="M310 170C420 120 530 120 650 160C780 202 900 285 980 410" stroke="#2A313D" stroke-opacity="0.14" stroke-width="8" stroke-linecap="round"/>
    <path d="M250 400C370 330 510 320 650 350C805 382 920 460 980 520" stroke="#2A313D" stroke-opacity="0.12" stroke-width="8" stroke-linecap="round"/>
  </g>

  <g>
    <rect x="430" y="140" width="340" height="320" rx="28" fill="#2A313D" fill-opacity="0.08"/>
    <path d="M468 210H732" stroke="#2A313D" stroke-opacity="0.18" stroke-width="10" stroke-linecap="round"/>
    <path d="M468 270H692" stroke="#2A313D" stroke-opacity="0.15" stroke-width="10" stroke-linecap="round"/>
    <path d="M468 330H652" stroke="#2A313D" stroke-opacity="0.12" stroke-width="10" stroke-linecap="round"/>
    <circle cx="730" cy="352" r="20" fill="#2A313D" fill-opacity="0.10"/>
  </g>
</svg>
