<svg width="1200" height="720" viewBox="0 0 1200 720" fill="none" xmlns="http://www.w3.org/2000/svg">
  <defs>
    <linearGradient id="n0" x1="0" y1="0" x2="1" y2="1">
      <stop offset="0" stop-color="#050B17"/>
      <stop offset="1" stop-color="#2B1E6B"/>
    </linearGradient>
    <radialGradient id="n1" cx="0" cy="0" r="1" gradientUnits="userSpaceOnUse" gradientTransform="translate(720 360) rotate(120) scale(520 520)">
      <stop offset="0" stop-color="#6D63FF" stop-opacity="0.55"/>
      <stop offset="1" stop-color="#6D63FF" stop-opacity="0"/>
    </radialGradient>
  </defs>
  <rect width="1200" height="720" rx="48" fill="url(#n0)"/>
  <rect width="1200" height="720" rx="48" fill="url(#n1)"/>

  <g opacity="0.25" stroke="#E7EEFE" stroke-width="4">
    <path d="M160 530C320 430 430 420 560 380C720 330 840 260 1040 150"/>
    <path d="M200 210C360 280 470 300 610 310C770 324 890 360 1040 460"/>
    <path d="M140 360C300 360 420 350 560 330C740 305 860 270 1040 230"/>
  </g>

  <g>
    <circle cx="300" cy="210" r="12" fill="#6BFF8F" fill-opacity="0.9"/>
    <circle cx="520" cy="320" r="14" fill="#E2DFFF" fill-opacity="0.9"/>
    <circle cx="740" cy="240" r="10" fill="#FFB695" fill-opacity="0.9"/>
    <circle cx="910" cy="430" r="13" fill="#6BFF8F" fill-opacity="0.9"/>
    <circle cx="420" cy="520" r="11" fill="#E2DFFF" fill-opacity="0.9"/>
    <circle cx="820" cy="360" r="9" fill="#FFB695" fill-opacity="0.9"/>
  </g>

  <g opacity="0.35" stroke="#FFFFFF" stroke-width="2">
    <circle cx="620" cy="360" r="220"/>
    <circle cx="620" cy="360" r="150"/>
  </g>
</svg>
